<svg width="62" height="62" viewBox="0 0 62 62" fill="none" xmlns="http://www.w3.org/2000/svg">
<g clip-path="url(#clip0_18_5)">
<path d="M54.2498 10.3333H46.2415C45.6419 7.4178 44.0555 4.79813 41.7497 2.91584C39.4439 1.03355 36.5597 0.00374226 33.5832 -1.52588e-05L28.4165 -1.52588e-05C25.44 0.00374226 22.5557 1.03355 20.2499 2.91584C17.9441 4.79813 16.3578 7.4178 15.7582 10.3333H7.74984C7.06469 10.3333 6.40761 10.6055 5.92314 11.09C5.43868 11.5744 5.1665 12.2315 5.1665 12.9167C5.1665 13.6018 5.43868 14.2589 5.92314 14.7433C6.40761 15.2278 7.06469 15.5 7.74984 15.5H10.3332V49.0833C10.3373 52.5078 11.6994 55.7908 14.1209 58.2122C16.5424 60.6337 19.8254 61.9959 23.2498 62H38.7498C42.1743 61.9959 45.4573 60.6337 47.8788 58.2122C50.3002 55.7908 51.6624 52.5078 51.6665 49.0833V15.5H54.2498C54.935 15.5 55.5921 15.2278 56.0765 14.7433C56.561 14.2589 56.8332 13.6018 56.8332 12.9167C56.8332 12.2315 56.561 11.5744 56.0765 11.09C55.5921 10.6055 54.935 10.3333 54.2498 10.3333ZM28.4165 5.16665H33.5832C35.1855 5.16861 36.7481 5.66621 38.0565 6.59121C39.3649 7.51622 40.3552 8.82334 40.8914 10.3333H21.1083C21.6445 8.82334 22.6347 7.51622 23.9432 6.59121C25.2516 5.66621 26.8141 5.16861 28.4165 5.16665ZM46.4998 49.0833C46.4998 51.1387 45.6833 53.11 44.2299 54.5634C42.7765 56.0168 40.8053 56.8333 38.7498 56.8333H23.2498C21.1944 56.8333 19.2232 56.0168 17.7698 54.5634C16.3164 53.11 15.4998 51.1387 15.4998 49.0833V15.5H46.4998V49.0833Z" fill="#F77B5E"/>
<path d="M25.8333 46.4984C26.5185 46.4984 27.1755 46.2262 27.66 45.7417C28.1445 45.2572 28.4167 44.6002 28.4167 43.915V28.4151C28.4167 27.7299 28.1445 27.0728 27.66 26.5884C27.1755 26.1039 26.5185 25.8317 25.8333 25.8317C25.1482 25.8317 24.4911 26.1039 24.0066 26.5884C23.5222 27.0728 23.25 27.7299 23.25 28.4151V43.915C23.25 44.6002 23.5222 45.2572 24.0066 45.7417C24.4911 46.2262 25.1482 46.4984 25.8333 46.4984Z" fill="#F77B5E"/>
<path d="M36.1664 46.4984C36.8515 46.4984 37.5086 46.2262 37.9931 45.7417C38.4775 45.2572 38.7497 44.6002 38.7497 43.915V28.4151C38.7497 27.7299 38.4775 27.0728 37.9931 26.5884C37.5086 26.1039 36.8515 25.8317 36.1664 25.8317C35.4812 25.8317 34.8241 26.1039 34.3397 26.5884C33.8552 27.0728 33.583 27.7299 33.583 28.4151V43.915C33.583 44.6002 33.8552 45.2572 34.3397 45.7417C34.8241 46.2262 35.4812 46.4984 36.1664 46.4984Z" fill="#F77B5E"/>
</g>
<defs>
<clipPath id="clip0_18_5">
<rect width="62" height="62" fill="white"/>
</clipPath>
</defs>
</svg>
